<?xml version="1.0" encoding="utf-8"?>
<svg version="1.1" id="Layer_3" xmlns="http://www.w3.org/2000/svg" xmlns:xlink="http://www.w3.org/1999/xlink" x="0px" y="0px"
	 viewBox="0 0 42 42" style="enable-background:new 0 0 42 42;" xml:space="preserve">
<style type="text/css">
	.st0{fill:#08090B;}
	.st1{fill:#FFFFFF;}
</style>
<path class="st0" d="M6,0h30c3.3,0,6,2.7,6,6v30c0,3.3-2.7,6-6,6H6c-3.3,0-6-2.7-6-6V6C0,2.7,2.7,0,6,0z"/>
<polygon class="st1" points="27.8,14.7 26.8,19.1 25.5,13.8 21,11.9 19.8,17.3 18.8,11 14.3,9.2 9.6,29.6 14.5,29.6 16,23.4 
	17,29.6 21.9,29.6 23.1,24.3 24.4,29.6 29.3,29.6 32.3,16.5 "/>
</svg>
