<svg width="42" height="42" viewBox="0 0 42 42" fill="none" xmlns="http://www.w3.org/2000/svg">
<rect width="42" height="42" rx="6" fill="white"/>
<path d="M26.4856 13.0859L23.6616 25.588L25.1754 31.9308L27.9994 19.4337L26.4856 13.0859Z" fill="#17171C"/>
<path d="M18.4495 9.83984L15.1392 24.4958L16.4097 31.9355L19.7201 17.2795L18.4495 9.83984Z" fill="#17171C"/>
<path d="M13.1155 7.69141L7.63623 31.9311H13.453L15.1355 24.4915L18.4508 9.84042L13.1155 7.69141Z" fill="#FF522E"/>
<path d="M21.1603 10.9414L19.721 17.2842L16.4106 31.9303H22.2224L23.6617 25.5875L26.4907 13.0855L21.1603 10.9414Z" fill="#317AFF"/>
<path d="M29.1914 14.1777L28.0052 19.4336L25.1763 31.9307H30.993L34.5168 16.3317L29.1914 14.1777Z" fill="#8F8F9B"/>
</svg>
