<svg width="45" height="45" viewBox="0 0 45 45" fill="none" xmlns="http://www.w3.org/2000/svg">
<path fill-rule="evenodd" clip-rule="evenodd" d="M35.4884 22.2542C35.5097 18.8108 34.1659 15.4991 31.751 13.0443C29.3362 10.5895 26.047 9.19144 22.6037 9.15625C19.1604 9.19144 15.8713 10.5895 13.4564 13.0443C11.0415 15.4991 9.69767 18.8108 9.719 22.2542C9.70738 24.4055 10.2214 26.527 11.2163 28.4344L18.685 16.4383C19.5736 15.061 20.511 14.9855 21.1331 15.1676C22.0705 15.4431 22.5637 16.3495 22.5993 17.8734V24.4579L25.9315 19.0553C26.4691 18.1667 27.8909 15.8741 29.7791 16.425C30.8943 16.7493 31.5563 17.9489 31.5563 19.6373V23.1295C31.5563 24.298 31.9073 25.1377 32.5382 25.4932C32.8084 25.6315 33.1111 25.6938 33.414 25.6735C33.7168 25.6531 34.0084 25.5509 34.2577 25.3776C35.1152 24.8356 35.5906 23.7204 35.5017 22.3209C35.5017 22.3209 35.5017 22.3209 35.5017 22.2853C35.5017 22.2498 35.4884 22.2675 35.4884 22.2542Z" fill="white"/>
<path fill-rule="evenodd" clip-rule="evenodd" d="M22.6056 0C18.2119 0 13.9169 1.30289 10.2636 3.7439C6.6104 6.18492 3.76305 9.65443 2.08165 13.7137C0.40025 17.7729 -0.0396807 22.2396 0.81749 26.5489C1.67466 30.8582 3.79043 34.8166 6.89726 37.9234C10.0041 41.0302 13.9624 43.146 18.2717 44.0031C22.581 44.8603 27.0477 44.4204 31.1069 42.739C35.1662 41.0576 38.6357 38.2102 41.0767 34.557C43.5177 30.9038 44.8206 26.6087 44.8206 22.215C44.8206 16.3232 42.4801 10.6727 38.314 6.50662C34.1479 2.3405 28.4974 0 22.6056 0V0ZM38.3694 22.2594C38.4671 24.712 37.5252 26.7469 35.7791 27.8532C35.097 28.2993 34.3067 28.5523 33.4923 28.5852C32.6779 28.618 31.8698 28.4296 31.154 28.0398C29.59 27.1512 28.697 25.374 28.697 23.1525V20.0912C28.5948 20.2379 28.4837 20.4067 28.3682 20.5977L24.6627 26.6047C23.4143 28.6351 22.2235 28.7862 21.4416 28.564C20.6596 28.3419 19.7355 27.5466 19.7355 25.1652V20.1846L12.9999 30.9944C14.1298 32.2884 15.5096 33.3406 17.0564 34.088C18.6032 34.8353 20.2851 35.2622 22.0011 35.3431C23.7171 35.4241 25.4317 35.1573 27.042 34.5589C28.6523 33.9604 30.125 33.0427 31.3717 31.8608C31.5093 31.7349 31.6705 31.6375 31.846 31.5743C32.0214 31.511 32.2076 31.4832 32.3939 31.4923C32.5802 31.5013 32.7629 31.5472 32.9313 31.6272C33.0998 31.7073 33.2507 31.8198 33.3755 31.9585C33.6356 32.2426 33.7735 32.6176 33.7594 33.0025C33.7453 33.3875 33.5802 33.7514 33.2999 34.0156C30.4071 36.7438 26.582 38.2646 22.6056 38.2676C13.9107 38.2676 6.83743 31.0832 6.83743 22.2728C6.83743 13.4623 13.9107 6.27796 22.6056 6.27796C31.3006 6.27796 38.3339 13.4179 38.3738 22.215V22.2861L38.3694 22.2594Z" fill="white"/>
</svg>
