<svg width="45" height="45" viewBox="0 0 45 45" fill="none" xmlns="http://www.w3.org/2000/svg">
<path d="M28.5689 25.4311C29.5483 25.1693 30.5009 24.8162 31.4143 24.3763C32.3342 23.9565 33.1893 23.4072 33.9538 22.7453L33.9316 22.7188L33.7455 22.8606C33.453 23.06 33.156 23.2506 32.8591 23.4367C32.3677 23.7072 31.86 23.947 31.3389 24.1547C30.4199 24.5373 29.4673 24.8341 28.4936 25.0411C27.5305 25.2301 26.5495 25.3118 25.5685 25.2849C24.5875 25.2883 23.6245 25.0215 22.7852 24.5137C23.5267 25.256 24.5201 25.6926 25.5685 25.7369C26.5787 25.8043 27.593 25.7009 28.5689 25.4311Z" fill="white"/>
<path d="M20.3684 15.4023C19.7802 15.4023 19.2053 15.5768 18.7162 15.9035C18.2272 16.2303 17.846 16.6948 17.6209 17.2382C17.3958 17.7816 17.3369 18.3795 17.4517 18.9564C17.5664 19.5333 17.8497 20.0632 18.2656 20.4791C18.6815 20.895 19.2114 21.1782 19.7882 21.2929C20.3651 21.4077 20.9631 21.3488 21.5065 21.1237C22.0499 20.8986 22.5143 20.5175 22.8411 20.0284C23.1679 19.5394 23.3423 18.9644 23.3423 18.3762C23.3423 17.5875 23.029 16.8311 22.4712 16.2734C21.9135 15.7157 21.1571 15.4023 20.3684 15.4023ZM20.3684 20.4903C19.9545 20.4903 19.5499 20.3675 19.2057 20.1374C18.8616 19.9074 18.5935 19.5804 18.4353 19.1979C18.2771 18.8154 18.2359 18.3945 18.317 17.9886C18.3981 17.5827 18.5978 17.21 18.8908 16.9176C19.1838 16.6252 19.5569 16.4263 19.963 16.3461C20.3691 16.2659 20.7899 16.308 21.172 16.467C21.5542 16.626 21.8806 16.8948 22.1099 17.2394C22.3392 17.584 22.4612 17.9889 22.4603 18.4028C22.4603 18.6773 22.4062 18.9491 22.301 19.2027C22.1958 19.4562 22.0416 19.6865 21.8473 19.8804C21.653 20.0743 21.4224 20.228 21.1686 20.3327C20.9148 20.4373 20.6429 20.4909 20.3684 20.4903Z" fill="white"/>
<path d="M31.6525 21.3413C31.6516 21.2142 31.613 21.0902 31.5417 20.985C31.4703 20.8799 31.3694 20.7982 31.2516 20.7504C31.1339 20.7025 31.0046 20.6907 30.8801 20.7164C30.7556 20.742 30.6415 20.804 30.5523 20.8945C30.463 20.985 30.4026 21.0999 30.3787 21.2247C30.3547 21.3496 30.3684 21.4787 30.4178 21.5958C30.4673 21.7129 30.5503 21.8127 30.6565 21.8825C30.7626 21.9524 30.8871 21.9893 31.0142 21.9884C31.0986 21.9878 31.1821 21.9706 31.2598 21.9378C31.3376 21.9049 31.4081 21.8571 31.4674 21.797C31.5266 21.7369 31.5735 21.6658 31.6052 21.5876C31.637 21.5094 31.653 21.4257 31.6525 21.3413Z" fill="white"/>
<path d="M22.4797 6.79304C19.6814 6.80501 16.9395 7.5809 14.5499 9.03698C12.1603 10.4931 10.2137 12.5741 8.92008 15.0554C7.62649 17.5368 7.03506 20.3243 7.20962 23.1171C7.38417 25.91 8.31807 28.6021 9.91055 30.9031C11.2756 27.8007 11.4529 25.1415 11.7543 21.5161C11.9759 18.1744 12.8933 15.4 18.5795 13.8311C19.9123 13.5583 21.2904 13.6008 22.6038 13.9551C23.8448 13.6626 25.263 13.6449 26.0475 14.3097C26.3343 14.533 26.5803 14.8045 26.7743 15.1119C26.8316 15.2072 26.8749 15.3101 26.9028 15.4177C28.0729 15.8609 29.2296 16.3351 30.3421 16.6587C36.2278 18.2675 35.6605 21.4763 32.7797 24.1665C32.0573 24.9111 31.2817 25.6157 30.7764 26.1476C28.5604 28.3636 24.6337 32.7956 25.2763 37.2852C29.0556 36.5978 32.4406 34.5201 34.7644 31.4614C37.0882 28.4026 38.1825 24.5846 37.8316 20.7594C37.4808 16.9341 35.7103 13.3788 32.8689 10.7938C30.0274 8.20885 26.321 6.78154 22.4797 6.79304Z" fill="white"/>
<path d="M22.5506 0C18.1678 0 13.8834 1.29966 10.2392 3.73463C6.59501 6.16961 3.7547 9.63052 2.07746 13.6797C0.400227 17.7289 -0.0386154 22.1846 0.816433 26.4832C1.67148 30.7818 3.78202 34.7304 6.88115 37.8295C9.98028 40.9286 13.9288 43.0392 18.2274 43.8942C22.5261 44.7493 26.9817 44.3104 31.0309 42.6332C35.0801 40.9559 38.541 38.1156 40.976 34.4714C43.411 30.8272 44.7106 26.5428 44.7106 22.16C44.7106 16.2828 42.3759 10.6463 38.2201 6.49051C34.0643 2.33471 28.4278 0 22.5506 0V0ZM22.626 38.78C19.3389 38.7949 16.1212 37.8347 13.3799 36.0208C10.6385 34.207 8.49655 31.621 7.22489 28.5898C5.95322 25.5587 5.60896 22.2185 6.23563 18.9917C6.8623 15.7648 8.43176 12.7963 10.7455 10.4615C13.0593 8.1266 16.0135 6.53029 19.2345 5.87439C22.4555 5.21849 25.7987 5.53246 28.8413 6.77659C31.8838 8.02071 34.4891 10.1391 36.3278 12.8639C38.1664 15.5887 39.1557 18.7976 39.1706 22.0847C39.1806 24.2672 38.7605 26.4304 37.9344 28.4506C37.1083 30.4708 35.8924 32.3086 34.3561 33.8589C32.8198 35.4092 30.9931 36.6417 28.9805 37.4861C26.9678 38.3305 24.8086 38.7701 22.626 38.78Z" fill="white"/>
</svg>
