<svg width="95" height="93" viewBox="0 0 95 93" fill="none" xmlns="http://www.w3.org/2000/svg">
<path fill-rule="evenodd" clip-rule="evenodd" d="M47.501 8.56309e-06C36.2233 -0.00676937 25.3115 4.01035 16.72 11.3319C8.12849 18.6534 2.41849 28.8011 0.61265 39.9575C-1.19319 51.1138 1.02311 62.5501 6.86459 72.218C12.7061 81.8859 21.7912 89.1539 32.4927 92.7203C34.8674 93.1963 35.7223 91.6732 35.7223 90.4356C35.7223 89.2933 35.7223 85.5806 35.6273 81.5824C22.4238 84.4383 19.6692 75.9659 19.6692 75.9659C18.7927 73.0811 16.903 70.6123 14.3498 69.0167C10.0753 66.0656 14.6347 66.1608 14.6347 66.1608C16.1446 66.3886 17.5846 66.9512 18.85 67.8076C20.1153 68.664 21.174 69.7925 21.9489 71.111C23.2759 73.4665 25.473 75.2055 28.0669 75.9534C30.6609 76.7012 33.4442 76.398 35.8173 75.1092C36.007 72.6791 37.0902 70.4063 38.857 68.7311C28.3132 67.4935 17.1994 63.4001 17.1994 45.2178C17.1407 40.4861 18.9107 35.9151 22.1389 32.4616C20.7132 28.3624 20.8828 23.8752 22.6138 19.8958C22.6138 19.8958 26.6034 18.6583 35.7223 24.7508C43.4917 22.5931 51.7002 22.5931 59.4696 24.7508C68.4936 18.5631 72.4831 19.8958 72.4831 19.8958C74.2181 23.8743 74.3878 28.3631 72.958 32.4616C76.1426 35.9355 77.8765 40.5011 77.8025 45.2178C77.8025 63.4953 66.6888 67.4935 56.145 68.7311C57.2781 69.8934 58.1521 71.2837 58.7088 72.8099C59.2656 74.3362 59.4925 75.9635 59.3746 77.5842C59.3746 83.9623 59.2796 89.1029 59.2796 90.626C59.2796 91.8635 60.1345 93.3867 62.5092 92.9107C73.2137 89.3228 82.2969 82.0382 88.1366 72.358C93.9763 62.6778 96.1922 51.2324 94.3884 40.0659C92.5846 28.8995 86.8787 18.7393 78.2898 11.3999C69.7008 4.06056 58.7882 0.0200413 47.501 8.56309e-06V8.56309e-06Z" fill="white"/>
</svg>
