<svg width="95" height="95" viewBox="0 0 95 95" fill="none" xmlns="http://www.w3.org/2000/svg">
<path fill-rule="evenodd" clip-rule="evenodd" d="M47.5 0C38.1054 0 28.9218 2.78583 21.1104 8.00519C13.2991 13.2246 7.2109 20.643 3.61574 29.3225C0.0205811 38.002 -0.920077 47.5527 0.91272 56.7668C2.74552 65.9809 7.26945 74.4446 13.9124 81.0876C20.5554 87.7305 29.0191 92.2545 38.2332 94.0873C47.4473 95.9201 56.998 94.9794 65.6775 91.3843C74.357 87.7891 81.7754 81.7009 86.9948 73.8896C92.2142 66.0782 95 56.8946 95 47.5C94.9958 34.9035 89.99 22.8241 81.0829 13.9171C72.1759 5.00999 60.0965 0.00419673 47.5 0V0ZM69.54 32.3C68.78 39.805 65.74 58.045 64.125 66.405C63.46 69.92 62.13 71.155 60.895 71.25C58.14 71.535 56.05 69.445 53.39 67.64C49.21 64.885 46.835 63.175 42.75 60.515C38.095 57.38 41.135 55.765 43.795 52.915C44.46 52.155 56.62 41.135 56.905 40.09C56.9348 39.9421 56.9333 39.7896 56.9006 39.6424C56.8679 39.4951 56.8046 39.3563 56.715 39.235C56.5829 39.1287 56.4228 39.0632 56.2541 39.0463C56.0855 39.0294 55.9155 39.062 55.765 39.14C55.385 39.235 48.64 43.605 35.72 52.345C34.247 53.4925 32.4551 54.1562 30.59 54.245C28.0634 53.9566 25.5775 53.3829 23.18 52.535C20.235 51.585 17.86 51.015 18.05 49.4C18.145 48.545 19.38 47.69 21.565 46.74C35.435 40.66 44.65 36.765 49.305 34.77C62.51 29.26 65.265 28.31 67.07 28.31C67.717 28.3033 68.3492 28.5029 68.875 28.88C69.2432 29.2335 69.4781 29.7033 69.54 30.21C69.54 30.78 69.54 31.635 69.54 32.3Z" fill="white"/>
</svg>
