<svg width="64" height="64" viewBox="0 0 64 64" fill="none" xmlns="http://www.w3.org/2000/svg">
<rect width="64" height="64" rx="32" fill="#ACCAFF"/>
<mask id="mask0_310_17171" style="mask-type:alpha" maskUnits="userSpaceOnUse" x="0" y="0" width="64" height="64">
<path d="M64 32C64 49.6731 49.6731 64 32 64C14.3269 64 0 49.6731 0 32C0 14.3269 14.3269 0 32 0C49.6731 0 64 14.3269 64 32Z" fill="#FFDCD5"/>
</mask>
<g mask="url(#mask0_310_17171)">
<path d="M32 38.6214C28.2069 38.6214 24.9598 37.2708 22.2586 34.5696C19.5575 31.8685 18.2069 28.6214 18.2069 24.8283C18.2069 21.0352 19.5575 17.788 22.2586 15.0869C24.9598 12.3857 28.2069 11.0352 32 11.0352C35.7931 11.0352 39.0403 12.3857 41.7414 15.0869C44.4426 17.788 45.7931 21.0352 45.7931 24.8283C45.7931 28.6214 44.4426 31.8685 41.7414 34.5696C39.0403 37.2708 35.7931 38.6214 32 38.6214ZM4.41382 66.2076V56.5524C4.41382 54.5984 4.91727 52.8018 5.92416 51.1627C6.92876 49.526 8.26439 48.2765 9.93106 47.4145C13.4943 45.6329 17.115 44.2961 20.7931 43.4041C24.4713 42.5145 28.2069 42.0696 32 42.0696C35.7931 42.0696 39.5288 42.5145 43.2069 43.4041C46.8851 44.2961 50.5058 45.6329 54.069 47.4145C55.7357 48.2765 57.0713 49.526 58.0759 51.1627C59.0828 52.8018 59.5862 54.5984 59.5862 56.5524V66.2076H4.41382Z" fill="#5A94FF"/>
</g>
</svg>
