<svg width="189" height="36" viewBox="0 0 189 36" fill="none" xmlns="http://www.w3.org/2000/svg">
<path d="M30.8508 9.98078L29.1522 17.4936L26.9801 8.42922L19.3693 5.34244L17.3114 14.4231L15.4822 3.77455L7.87143 0.704102L0.0319824 35.361H8.34506L10.7622 24.7124L12.5588 35.361H20.8882L22.9297 26.2803L25.1019 35.361H33.4149L38.4616 13.0512L30.8508 9.98078Z" fill="white"/>
<path d="M88.1106 16.6936C88.1106 16.0802 87.6134 15.583 87 15.583C86.3866 15.583 85.8894 16.0802 85.8894 16.6936V34.2507C85.8894 34.864 86.3866 35.3613 87 35.3613C87.6134 35.3613 88.1106 34.864 88.1106 34.2507V16.6936Z" fill="white"/>
<path d="M130.01 16.6936C130.01 16.0802 129.512 15.583 128.899 15.583C128.286 15.583 127.788 16.0802 127.788 16.6936V34.2507C127.788 34.864 128.286 35.3613 128.899 35.3613C129.512 35.3613 130.01 34.864 130.01 34.2507V16.6936Z" fill="white"/>
<path d="M65.1026 26.7216L58.0308 16.1056C57.8185 15.779 57.4592 15.583 57.0672 15.583H56.8059C56.2016 15.583 55.6953 16.0893 55.6953 16.6936V34.2507C55.6953 34.855 56.2016 35.3613 56.8059 35.3613C57.4102 35.3613 57.9165 34.855 57.9165 34.2507V19.5517L64.2044 28.7794C64.482 29.1877 64.7923 29.3347 65.1026 29.3347C65.413 29.3347 65.7233 29.204 66.0009 28.7794L72.2888 19.5517V34.2507C72.2888 34.855 72.7951 35.3613 73.3994 35.3613C74.0037 35.3613 74.51 34.855 74.51 34.2507V16.6936C74.51 16.0893 74.0037 15.583 73.3994 15.583H73.1381C72.7461 15.583 72.3868 15.779 72.1745 16.1056L65.1026 26.7216Z" fill="white"/>
<path d="M150.796 26.7216L143.724 16.1056C143.511 15.779 143.152 15.583 142.76 15.583H142.499C141.894 15.583 141.388 16.0893 141.388 16.6936V34.2507C141.388 34.855 141.894 35.3613 142.499 35.3613C143.103 35.3613 143.609 34.855 143.609 34.2507V19.5517L149.897 28.7794C150.175 29.1877 150.485 29.3347 150.796 29.3347C151.106 29.3347 151.416 29.204 151.694 28.7794L157.982 19.5517V34.2507C157.982 34.855 158.488 35.3613 159.092 35.3613C159.697 35.3613 160.203 34.855 160.203 34.2507V16.6936C160.203 16.0893 159.697 15.583 159.092 15.583H158.831C158.439 15.583 158.08 15.779 157.867 16.1056L150.796 26.7216Z" fill="white"/>
<path d="M114.181 31.7355L101.866 16.024C101.654 15.7463 101.311 15.583 100.952 15.583H100.609C100.005 15.583 99.4983 16.0893 99.4983 16.6936V34.2507C99.4983 34.855 100.005 35.3613 100.609 35.3613C101.213 35.3613 101.719 34.855 101.719 34.2507V19.2088L113.871 34.708L114.034 34.9203C114.246 35.198 114.589 35.3613 114.949 35.3613H115.291C115.896 35.3613 116.402 34.855 116.402 34.2507V16.6936C116.402 16.0893 115.896 15.583 115.291 15.583C114.687 15.583 114.181 16.0893 114.181 16.6936V31.7355V31.7355Z" fill="white"/>
<path d="M188.847 33.875C188.847 33.875 181.073 16.8733 180.861 16.4323C180.648 15.9913 180.191 15.583 179.456 15.583C178.721 15.583 178.264 15.975 178.052 16.4323C177.839 16.8896 170.065 33.875 170.065 33.875C169.82 34.3977 170.065 35.0183 170.588 35.2633C171.11 35.5083 171.731 35.2633 171.976 34.7407L174.05 30.1186H184.895L186.969 34.7407C187.214 35.2633 187.835 35.4919 188.357 35.2633C188.88 35.0183 189.109 34.3977 188.88 33.875H188.847ZM179.456 28.0771H174.949L179.456 18.0492L183.964 28.0771H179.456Z" fill="white"/>
</svg>
