<svg version="1.1" id="Layer_1" xmlns="http://www.w3.org/2000/svg" xmlns:xlink="http://www.w3.org/1999/xlink" x="0px" y="0px"
	 viewBox="0 0 120 28" style="enable-background:new 0 0 120 28;" xml:space="preserve">
<style type="text/css">
	.st0{fill:#FFFFFF;}
</style>
<path class="st0" d="M52.78,27.39V15l-5.12,9.4h-1.62L40.9,15v12.39h-2.74V10.01h2.94l5.75,10.63l5.75-10.63h2.94v17.39H52.78z
	 M59.13,27.39V14.59h2.69v12.81H59.13z M59.13,12.48V9.52h2.69v2.96H59.13z M76.54,27.39h-2.69v-7.17c0-1.19-0.2-2.06-0.59-2.62
	c-0.38-0.56-0.94-0.83-1.69-0.83c-0.52,0-1.04,0.13-1.57,0.39c-0.51,0.26-0.96,0.62-1.37,1.08c-0.41,0.44-0.7,0.95-0.88,1.54v7.62
	h-2.69V14.59h2.45v2.57c0.33-0.57,0.75-1.06,1.27-1.47c0.54-0.42,1.14-0.75,1.81-0.98c0.67-0.23,1.38-0.34,2.13-0.34
	c0.77,0,1.4,0.14,1.89,0.42c0.51,0.28,0.9,0.66,1.18,1.15c0.29,0.47,0.49,1.03,0.59,1.67c0.11,0.62,0.17,1.28,0.17,1.98V27.39z
	 M79.67,27.39V14.59h2.69v12.81H79.67z M79.67,12.48V9.52h2.69v2.96H79.67z M105.19,27.39h-2.69v-7.17c0-1.19-0.2-2.06-0.59-2.62
	c-0.39-0.56-0.96-0.83-1.71-0.83c-0.75,0-1.45,0.29-2.11,0.86c-0.64,0.56-1.09,1.28-1.35,2.18v7.59h-2.69v-7.17
	c0-1.19-0.2-2.06-0.59-2.62c-0.39-0.56-0.96-0.83-1.69-0.83c-0.75,0-1.45,0.28-2.11,0.83c-0.64,0.56-1.09,1.28-1.37,2.18v7.62H85.6
	V14.59h2.45v2.57c0.51-0.9,1.17-1.58,1.98-2.06c0.83-0.49,1.78-0.73,2.84-0.73s1.89,0.28,2.5,0.83c0.62,0.56,1,1.25,1.15,2.08
	c0.55-0.95,1.23-1.67,2.03-2.15c0.82-0.51,1.75-0.76,2.79-0.76c0.75,0,1.38,0.14,1.89,0.42c0.51,0.28,0.9,0.66,1.18,1.15
	c0.28,0.47,0.47,1.03,0.59,1.67c0.13,0.62,0.2,1.28,0.2,1.98V27.39z M107.36,23.65c0-0.82,0.23-1.53,0.69-2.13
	c0.47-0.62,1.12-1.09,1.93-1.42c0.82-0.34,1.76-0.51,2.84-0.51c0.57,0,1.15,0.04,1.74,0.12c0.6,0.08,1.13,0.21,1.59,0.39v-0.81
	c0-0.9-0.27-1.6-0.81-2.11c-0.54-0.51-1.31-0.76-2.33-0.76c-0.72,0-1.4,0.13-2.03,0.39c-0.64,0.24-1.31,0.6-2.03,1.05l-0.91-1.81
	c0.85-0.57,1.7-1,2.55-1.27c0.87-0.28,1.77-0.42,2.72-0.42c1.71,0,3.06,0.46,4.04,1.37c1,0.9,1.49,2.18,1.49,3.84v4.77
	c0,0.31,0.05,0.53,0.15,0.66c0.11,0.13,0.3,0.2,0.56,0.22v2.15c-0.24,0.05-0.47,0.08-0.66,0.1c-0.2,0.02-0.36,0.02-0.49,0.02
	c-0.57,0-1-0.14-1.3-0.42c-0.29-0.28-0.47-0.6-0.51-0.98l-0.07-0.73c-0.56,0.72-1.27,1.27-2.13,1.67c-0.87,0.39-1.74,0.59-2.62,0.59
	c-0.85,0-1.61-0.17-2.28-0.51c-0.67-0.36-1.19-0.84-1.57-1.44C107.55,25.07,107.36,24.4,107.36,23.65z M115.51,24.43
	c0.2-0.21,0.35-0.42,0.47-0.64c0.11-0.21,0.17-0.4,0.17-0.56v-1.47c-0.46-0.18-0.94-0.31-1.44-0.39c-0.51-0.1-1-0.15-1.49-0.15
	c-0.98,0-1.78,0.2-2.4,0.59c-0.6,0.39-0.91,0.93-0.91,1.62c0,0.38,0.1,0.73,0.29,1.08c0.21,0.34,0.51,0.62,0.88,0.83
	c0.39,0.21,0.87,0.32,1.44,0.32c0.59,0,1.15-0.11,1.69-0.34C114.75,25.08,115.19,24.79,115.51,24.43z"/>
<polygon class="st0" points="6.73,0.62 12.74,3.05 14.18,11.45 15.8,4.28 21.81,6.71 23.53,13.88 24.87,7.95 30.89,10.38 26.91,28 
	20.34,28 18.62,20.83 17,27.99 10.43,28 9,19.6 7.1,28 0.53,28 "/>
</svg>
