<svg width="21" height="21" viewBox="0 0 21 21" fill="none" xmlns="http://www.w3.org/2000/svg">
<path fill-rule="evenodd" clip-rule="evenodd" d="M15.9528 9.56723C15.9528 13.2651 12.9551 16.2629 9.25718 16.2629C5.55927 16.2629 2.56152 13.2651 2.56152 9.56723C2.56152 5.86933 5.55927 2.87158 9.25718 2.87158C12.9551 2.87158 15.9528 5.86933 15.9528 9.56723ZM16.0488 14.998C17.2403 13.51 17.9528 11.6218 17.9528 9.56723C17.9528 4.76476 14.0597 0.871582 9.25718 0.871582C4.4547 0.871582 0.561523 4.76476 0.561523 9.56723C0.561523 14.3697 4.4547 18.2629 9.25718 18.2629C11.3118 18.2629 13.1999 17.5503 14.688 16.3589C14.732 16.4376 14.7875 16.5117 14.8544 16.5787L18.8544 20.5787C19.2449 20.9692 19.8781 20.9692 20.2686 20.5787C20.6592 20.1882 20.6592 19.555 20.2686 19.1645L16.2686 15.1645C16.2017 15.0975 16.1276 15.042 16.0488 14.998Z" fill="#317AFF"/>
</svg>
