<svg width="95" height="95" viewBox="0 0 95 95" fill="none" xmlns="http://www.w3.org/2000/svg">
<path d="M56.43 45.125C55.7241 45.153 55.0307 45.3206 54.39 45.6181C53.7492 45.9156 53.1737 46.3371 52.6967 46.8582C52.2197 47.3793 51.8507 47.9898 51.611 48.6544C51.3713 49.3189 51.2656 50.0244 51.3 50.73C51.2466 52.1511 51.7549 53.536 52.715 54.585C53.6751 55.634 55.0098 56.2627 56.43 56.335C57.1359 56.307 57.8293 56.1394 58.4701 55.8419C59.1108 55.5444 59.6863 55.1229 60.1633 54.6018C60.6403 54.0806 61.0093 53.4702 61.249 52.8056C61.4887 52.1411 61.5944 51.4356 61.56 50.73C61.6135 49.3089 61.1051 47.924 60.145 46.875C59.1849 45.8259 57.8502 45.1973 56.43 45.125V45.125ZM38.095 45.125C37.3891 45.153 36.6957 45.3206 36.055 45.6181C35.4142 45.9156 34.8387 46.3371 34.3617 46.8582C33.8847 47.3793 33.5157 47.9898 33.276 48.6544C33.0363 49.3189 32.9306 50.0244 32.965 50.73C32.9116 52.1511 33.4199 53.536 34.38 54.585C35.3401 55.634 36.6748 56.2627 38.095 56.335C38.8009 56.307 39.4943 56.1394 40.1351 55.8419C40.7758 55.5444 41.3513 55.1229 41.8283 54.6018C42.3053 54.0806 42.6743 53.4702 42.914 52.8056C43.1537 52.1411 43.2594 51.4356 43.225 50.73C43.2599 50.0243 43.1545 49.3186 42.9149 48.6539C42.6753 47.9892 42.3064 47.3785 41.8293 46.8573C41.3522 46.3361 40.7766 45.9146 40.1356 45.6173C39.4946 45.3199 38.8011 45.1526 38.095 45.125V45.125ZM47.5 0C38.1054 0 28.9218 2.78583 21.1104 8.00519C13.2991 13.2246 7.2109 20.643 3.61574 29.3225C0.0205811 38.002 -0.920077 47.5527 0.91272 56.7668C2.74552 65.9809 7.26945 74.4446 13.9124 81.0876C20.5554 87.7305 29.0191 92.2545 38.2332 94.0873C47.4473 95.9201 56.998 94.9794 65.6775 91.3843C74.357 87.7891 81.7754 81.7009 86.9948 73.8896C92.2142 66.0782 95 56.8946 95 47.5C94.9958 34.9035 89.99 22.8241 81.0829 13.9171C72.1759 5.00999 60.0965 0.00419673 47.5 0V0ZM61.465 68.59C61.465 68.59 59.66 66.405 58.14 64.505C61.7758 63.6136 64.9953 61.5008 67.26 58.52C65.4394 59.7064 63.4966 60.6937 61.465 61.465C59.1228 62.4832 56.6669 63.2167 54.15 63.65C49.8482 64.4805 45.4242 64.4482 41.135 63.555C38.6013 63.0634 36.1201 62.3318 33.725 61.37C32.585 60.895 31.35 60.325 30.02 59.66C29.83 59.565 29.735 59.47 29.545 59.375C29.45 59.28 29.355 59.28 29.355 59.185C28.8539 58.9459 28.3768 58.6596 27.93 58.33C30.0874 61.2746 33.2171 63.3611 36.765 64.22C35.245 66.12 33.44 68.4 33.44 68.4C30.4634 68.4809 27.5124 67.8303 24.8458 66.5053C22.1792 65.1802 19.8783 63.2212 18.145 60.8C18.3185 50.5972 20.7861 40.5643 25.365 31.445C29.4294 28.2679 34.3691 26.4113 39.52 26.125L39.995 26.695C35.1783 27.9189 30.6771 30.1533 26.79 33.25C26.79 33.25 27.93 32.68 29.735 31.825C33.3356 30.157 37.1878 29.0976 41.135 28.69C41.4129 28.6116 41.7017 28.5795 41.99 28.595C45.3639 28.1801 48.7739 28.1483 52.155 28.5C57.4538 29.1327 62.5818 30.7775 67.26 33.345C63.5864 30.3462 59.3091 28.1752 54.72 26.98L55.385 26.22C60.5475 26.4504 65.5037 28.3132 69.54 31.54C74.1359 40.653 76.6045 50.6899 76.76 60.895C76.855 60.99 72.58 68.305 61.465 68.59Z" fill="white"/>
</svg>
