<svg width="95" height="95" viewBox="0 0 95 95" fill="none" xmlns="http://www.w3.org/2000/svg">
<path d="M47.5 0C38.1054 0 28.9218 2.78583 21.1104 8.00519C13.2991 13.2246 7.2109 20.643 3.61574 29.3225C0.0205811 38.002 -0.920077 47.5527 0.91272 56.7668C2.74552 65.9809 7.26945 74.4446 13.9124 81.0876C20.5554 87.7305 29.0191 92.2545 38.2332 94.0873C47.4473 95.9201 56.998 94.9794 65.6775 91.3843C74.357 87.7891 81.7754 81.7009 86.9948 73.8896C92.2142 66.0782 95 56.8946 95 47.5C95 34.9022 89.9955 22.8204 81.0876 13.9124C72.1796 5.00445 60.0978 0 47.5 0V0ZM34.3457 64.638C30.9512 64.6612 27.6263 63.6758 24.7926 61.8068C21.9589 59.9379 19.7441 57.2695 18.4289 54.14C17.1138 51.0106 16.7577 47.5611 17.4057 44.2289C18.0536 40.8968 19.6766 37.8322 22.0686 35.4236C24.4607 33.0151 27.5141 31.3712 30.8417 30.7004C34.1693 30.0295 37.6212 30.362 40.7596 31.6556C43.898 32.9493 46.5815 35.1458 48.4699 37.9666C50.3583 40.7874 51.3664 44.1054 51.3665 47.5C51.3817 52.0296 49.597 56.3798 46.4051 59.5937C43.2131 62.8076 38.8753 64.6221 34.3457 64.638V64.638ZM61.5283 63.65C56.829 63.65 53.0163 56.4237 53.0163 47.5C53.0163 38.5763 56.8163 31.3658 61.5252 31.3658C66.234 31.3658 70.0372 38.589 70.0372 47.5C70.0372 56.4078 66.2277 63.65 61.5283 63.65ZM74.6827 61.9685C73.0297 61.9685 71.6902 55.4958 71.6902 47.5158C71.6902 39.5358 73.0297 33.0632 74.6827 33.0632C76.3357 33.0632 77.6752 39.5358 77.6752 47.5158C77.6752 55.4958 76.3357 61.9527 74.6827 61.9527V61.9685Z" fill="white"/>
</svg>
