<svg width="95" height="95" viewBox="0 0 95 95" fill="none" xmlns="http://www.w3.org/2000/svg">
<path d="M47.5 0C38.1054 0 28.9218 2.78583 21.1104 8.00519C13.2991 13.2246 7.2109 20.643 3.61574 29.3225C0.0205811 38.002 -0.920077 47.5527 0.91272 56.7668C2.74552 65.9809 7.26945 74.4446 13.9124 81.0876C20.5554 87.7305 29.0191 92.2545 38.2332 94.0873C47.4473 95.9201 56.998 94.9794 65.6775 91.3843C74.357 87.7891 81.7754 81.7009 86.9948 73.8896C92.2142 66.0782 95 56.8946 95 47.5C94.9958 34.9035 89.99 22.8241 81.0829 13.9171C72.1759 5.00999 60.0965 0.00419673 47.5 0V0ZM71.345 38.475V39.9C71.387 44.1873 70.5767 48.4401 68.9611 52.4116C67.3456 56.383 64.957 59.9939 61.9342 63.0344C58.9113 66.075 55.3145 68.4845 51.3525 70.1232C47.3905 71.7619 43.1424 72.597 38.855 72.58C32.6545 72.5992 26.5818 70.817 21.375 67.45C22.2895 67.5605 23.209 67.624 24.13 67.64C29.2884 67.6655 34.3062 65.9594 38.38 62.795C35.9925 62.7533 33.6789 61.9596 31.7686 60.5269C29.8583 59.0941 28.4486 57.0953 27.74 54.815C28.4565 54.9765 29.1914 55.0404 29.925 55.005C30.9483 54.9781 31.9665 54.8508 32.965 54.625C30.3752 54.0991 28.0453 52.6976 26.3671 50.6561C24.689 48.6147 23.7648 46.0577 23.75 43.415V43.225C25.3296 44.0834 27.084 44.5707 28.88 44.65C26.456 43.0524 24.7328 40.5902 24.062 37.7656C23.3911 34.941 23.8232 31.9669 25.27 29.45C28.1331 32.9913 31.7118 35.8882 35.7718 37.9509C39.8318 40.0137 44.2816 41.1958 48.83 41.42C48.6364 40.5467 48.5408 39.6545 48.545 38.76C48.5309 36.463 49.2094 34.215 50.4921 32.3095C51.7749 30.4039 53.6022 28.9293 55.7357 28.0779C57.8691 27.2266 60.2097 27.0381 62.4519 27.5371C64.6941 28.036 66.7339 29.1993 68.305 30.875C70.8884 30.4011 73.3659 29.468 75.62 28.12C74.7646 30.7797 72.9764 33.0404 70.585 34.485C72.8515 34.2327 75.0638 33.6235 77.14 32.68C75.5294 34.9081 73.5731 36.8644 71.345 38.475V38.475Z" fill="white"/>
</svg>
