<svg width="95" height="95" viewBox="0 0 95 95" fill="none" xmlns="http://www.w3.org/2000/svg">
<path d="M47.5 0C38.1054 0 28.9218 2.78583 21.1104 8.00519C13.2991 13.2246 7.2109 20.643 3.61574 29.3225C0.0205811 38.002 -0.920077 47.5527 0.91272 56.7668C2.74552 65.9809 7.26945 74.4446 13.9124 81.0876C20.5554 87.7305 29.0191 92.2545 38.2332 94.0873C47.4473 95.9201 56.998 94.9794 65.6775 91.3843C74.357 87.7891 81.7754 81.7009 86.9948 73.8896C92.2142 66.0782 95 56.8946 95 47.5C94.9958 34.9035 89.99 22.8241 81.0829 13.9171C72.1759 5.00999 60.0965 0.00419673 47.5 0V0ZM77.14 62.415C76.7792 63.7329 76.0814 64.9341 75.1152 65.9002C74.1491 66.8664 72.9479 67.5642 71.63 67.925C63.6205 68.8422 55.5613 69.2546 47.5 69.16C47.5 69.16 28.12 69.16 23.37 67.83C22.0521 67.4692 20.851 66.7714 19.8848 65.8052C18.9186 64.839 18.2208 63.6379 17.86 62.32C17.0062 57.4268 16.5929 52.467 16.625 47.5C16.5929 42.4973 17.0382 37.503 17.955 32.585C18.3158 31.2671 19.0136 30.0659 19.9798 29.0998C20.946 28.1336 22.1471 27.4358 23.465 27.075C28.31 25.745 47.595 25.745 47.595 25.745C47.595 25.745 66.975 25.745 71.725 27.075C73.0429 27.4358 74.2441 28.1336 75.2102 29.0998C76.1764 30.0659 76.8742 31.2671 77.235 32.585C78.1518 37.503 78.5971 42.4973 78.565 47.5C78.4982 52.5022 78.0217 57.4906 77.14 62.415V62.415ZM41.325 56.81L57.38 47.5L41.325 38.19V56.81Z" fill="white"/>
</svg>
