<?xml version="1.0" encoding="utf-8"?>
<!-- Generator: Adobe Illustrator 26.0.2, SVG Export Plug-In . SVG Version: 6.00 Build 0)  -->
<svg version="1.1" id="Layer_1" xmlns="http://www.w3.org/2000/svg" xmlns:xlink="http://www.w3.org/1999/xlink" x="0px" y="0px"
	 viewBox="0 0 411 411" style="enable-background:new 0 0 411 411;" xml:space="preserve">
<style type="text/css">
	.st0{fill:#FFFFFF;}
</style>
<path class="st0" d="M410.9,205.5c0-116.7-97.3-210.6-215.1-205.2C90.4,5.1,5,90.5,0.2,195.7c-5.4,117.9,88.6,215.1,205.2,215.1
	c42.7,0,82.4-13.1,115.2-35.4c6.3-4.3,14.8-3.7,20.2,1.7l26,26c4.7,4.8,11.2,7.7,18.4,7.7c14.2,0,25.7-11.5,25.7-25.7L410.9,205.5
	L410.9,205.5z M331.1,294.8c-7.1,10-15.4,19.1-24.6,27.1c-6.3,5.5-15.9,5.1-21.8-0.8L271,307.4c-6.6-6.5-6.3-17.4,0.7-23.4
	c8.8-7.4,16.4-16.4,22.2-26.3c9-15.3,14.3-33.1,14.3-52.2c0-15.9-3.6-31-10.1-44.5c-1.9-3.9-7.1-4.7-10.2-1.7l-46.1,46.1l-25,25
	c-6.2,6.2-16.4,6.2-22.6,0l-25-25l-46.1-46.1c-3.1-3.1-8.4-2.3-10.2,1.7c-6.5,13.5-10.1,28.5-10.1,44.5c0,19.1,5.2,36.9,14.3,52.2
	c5.9,10,13.4,18.9,22.2,26.3c7.1,6,7.3,16.9,0.7,23.4l-13.7,13.7c-5.9,5.9-15.4,6.3-21.8,0.8c-9.2-8-17.5-17.1-24.6-27.1
	c-18-25.2-28.5-56-28.5-89.3s10.6-64.1,28.5-89.3c7.1-10,15.4-19.1,24.6-27.1c6.3-5.5,15.9-5.1,21.8,0.8l27.1,27.1l45.4,45.4
	c3.8,3.8,9.8,3.8,13.6,0l45.4-45.4l27.1-27.1c5.9-5.9,15.4-6.3,21.8-0.8c9.2,8,17.5,17.1,24.6,27.1c18,25.2,28.5,56,28.5,89.3
	S349.1,269.6,331.1,294.8L331.1,294.8z"/>
</svg>
